# xmcd
# Track frame offsets:
# 150
# 10903
# 24398
# 34604
# 49056
# 75913
# 90131
# 107549
# 120423
# 134810
# 144336
# 154056
# 170831
# 188923
# 201521
# 214462
#
# Disc length: 3055 seconds
# Revision: 0
# Processed by: cddbd v1.5.1PL0 Copyright (c) Steve Scherf et al.
# Submitted via: VisiTrax 2.9.10.228 - For more info visit www.synapsa.com
#
DISCID=d20bed10
DTITLE=Various Artist - Country Classic Hits - Disc 3
DYEAR=1980
DGENRE=Country
TTITLE0=Barbra Mandrell - Sleeping Single In A Double Bed
TTITLE1=Johnny Paycheck - Take This Job And Shove It
TTITLE2=Moe Bandy - The All American Dream
TTITLE3=Don Williams - Tulsa Time
TTITLE4=Johnny Cash - Ghost Riders In The Sky
TTITLE5=Merle Haggard - Always Wanting You
TTITLE6=Merle Haggard - Amber Waves Of Grain
TTITLE7=Lynne Anderson - How Can I Unlove You
TTITLE8=Barbra Mandrell and David Huston - I Love You, I Love You
TTITLE9=Webb Pierce - In The Jail House Now
TTITLE10=Bob Luman - Lets Think About Living
TTITLE11=David Allen Coe - Mona Lisa Lost Her Smile
TTITLE12=Montgomery Gentry - Tattoos and Scars
TTITLE13=Freddie Fender - Wasted Days And Wasted Night
TTITLE14=Johnny Paycheck - All American Man
TTITLE15=Eddie Rabbitt - Always Lovin You
EXTD=
EXTT0=
EXTT1=
EXTT2=
EXTT3=
EXTT4=
EXTT5=
EXTT6=
EXTT7=
EXTT8=
EXTT9=
EXTT10=
EXTT11=
EXTT12=
EXTT13=
EXTT14=
EXTT15=
PLAYORDER=
